<svg aria-hidden="true" style="position: absolute; width: 0; height: 0; overflow: hidden;" version="1.1" xmlns="http://www.w3.org/2000/svg" xmlns:xlink="http://www.w3.org/1999/xlink">
<defs>
<symbol id="bg-body-tab" viewBox="0 0 20 32">
<path fill="" style="fill: var(--color1, )" d="M0 0h20.46v33.662h-20.46v-33.662z"></path>
<path fill="#000" style="fill: var(--color2, #000)" opacity="0.03" d="M2.925 6.458c0 0.6-0.487 1.087-1.087 1.087s-1.087-0.487-1.087-1.087c0-0.6 0.487-1.087 1.087-1.087s1.087 0.487 1.087 1.087z"></path>
<path fill="#000" style="fill: var(--color2, #000)" opacity="0.03" d="M2.925 30.849c0-0.143-0.028-0.284-0.083-0.416s-0.135-0.252-0.236-0.353c-0.101-0.101-0.221-0.181-0.353-0.236s-0.273-0.083-0.416-0.083-0.284 0.028-0.416 0.083c-0.132 0.055-0.252 0.135-0.353 0.236s-0.181 0.221-0.236 0.353-0.083 0.273-0.083 0.416h2.174z"></path>
<path fill="#000" style="fill: var(--color2, #000)" opacity="0.03" d="M19.708 14.849c0 0.6-0.487 1.087-1.087 1.087s-1.087-0.487-1.087-1.087c0-0.6 0.487-1.087 1.087-1.087s1.087 0.487 1.087 1.087z"></path>
<path fill="#000" style="fill: var(--color2, #000)" d="M0 0h20.46v33.662h-20.46v-33.662z"></path>
</symbol>
<symbol id="noise-body-tab" viewBox="0 0 18 32">
<path d="M0 0h18.327v32h-18.327v-32z"></path>
</symbol>
<symbol id="logo-desc" viewBox="0 0 62 32">
<path d="M19.119 23.909c-0.575-1.648-1.759-2.472-3.552-2.472h-0.566v10.163h0.566c1.385 0 2.408-0.563 3.068-1.688 0.556-0.96 0.834-2.183 0.834-3.666-0.001-0.883-0.118-1.662-0.35-2.337z"></path>
<path d="M9.412 24.031c0.576 1.648 1.76 2.471 3.551 2.471h0.566v-10.163h-0.566c-1.385 0-2.408 0.563-3.068 1.688-0.554 0.96-0.831 2.182-0.832 3.666 0 0.882 0.116 1.661 0.348 2.337z"></path>
<path d="M0 0.108h7.526v2.692h-4.824v1.346h4.008v2.554h-4.008v1.361h4.824v2.692h-7.526v-10.644z"></path>
<path d="M11.31 0.096h9.737l-4.869 10.874-4.869-10.874zM16.179 9.623l4.023-8.962h-8.030l4.008 8.962z"></path>
<path d="M24.937 0.108h7.526v2.692h-4.824v1.346h4.008v2.554h-4.008v1.361h4.824v2.692h-7.526v-10.644z"></path>
<path d="M37.094 10.737v-10.642h0.579l7.214 7.234v-7.234h0.549v10.644l-8.342-0.003z"></path>
<path d="M53.318 10.753v-7.953h-3.904v-2.692h8.342v2.692h-3.904v7.953h-0.534z"></path>
<path d="M4.438 18.461c0.653 0 1.173 0.102 1.559 0.306 0.443 0.223 0.816 0.572 1.074 1.005s0.39 0.934 0.381 1.442c0.003 0.49-0.131 0.97-0.386 1.384-0.259 0.424-0.623 0.77-1.054 1.002 0.536 0.195 1.005 0.545 1.351 1.009 0.359 0.459 0.553 1.032 0.549 1.621 0.004 0.515-0.132 1.021-0.393 1.46-0.255 0.436-0.616 0.797-1.046 1.048-0.229 0.127-0.473 0.219-0.727 0.275-0.267 0.061-0.623 0.092-1.069 0.092h-4.572v-10.644h4.334z"></path>
<path d="M21.842 28.333c-0.777-0.698-1.16-1.746-1.15-3.143h2.419c-0.010 0.581 0.158 1.025 0.505 1.331s0.831 0.459 1.455 0.459c0.515 0 0.92-0.087 1.217-0.26s0.445-0.438 0.445-0.795c0-0.296-0.151-0.51-0.453-0.642-0.288-0.128-0.589-0.223-0.898-0.283-0.297-0.056-0.48-0.090-0.549-0.102-0.672-0.128-1.333-0.316-1.974-0.561-0.538-0.206-1.018-0.548-1.395-0.994-0.376-0.449-0.564-1.040-0.564-1.774s0.188-1.359 0.564-1.873c0.376-0.515 0.878-0.9 1.507-1.155 0.656-0.26 1.353-0.39 2.056-0.382 0.901 0 1.68 0.173 2.338 0.52s1.175 0.872 1.551 1.575c0.174 0.297 0.29 0.627 0.341 0.971 0.039 0.302 0.059 0.606 0.059 0.91h-2.419c0-0.551-0.143-0.956-0.43-1.216s-0.732-0.39-1.336-0.39c-0.485 0-0.861 0.087-1.128 0.26s-0.401 0.408-0.401 0.703c0 0.326 0.178 0.566 0.534 0.719 0.438 0.178 0.89 0.316 1.351 0.413 0.891 0.184 1.586 0.359 2.086 0.528 0.504 0.171 0.953 0.48 1.299 0.895 0.366 0.428 0.549 1.030 0.549 1.805 0 0.734-0.198 1.366-0.594 1.896s-0.918 0.935-1.566 1.216c-0.666 0.284-1.38 0.427-2.1 0.421-1.435-0.002-2.541-0.352-3.318-1.050z"></path>
<path d="M35.506 29.105v-7.953h-3.904v-2.692h8.342v2.692h-3.904v7.953h-0.534z"></path>
<path d="M42.749 18.461h7.526v2.692h-4.824v1.346h4.008v2.554h-4.008v1.361h4.824v2.692h-7.526v-10.644z"></path>
<path d="M61.422 29.105h-7.941v-10.644h4.023c0.861 0 1.563 0.158 2.108 0.474 0.52 0.291 0.951 0.725 1.247 1.254 0.298 0.535 0.452 1.142 0.445 1.759 0.007 0.774-0.244 1.528-0.713 2.133-0.448 0.609-1.080 1.047-1.796 1.246l2.628 3.777zM54.030 19.394v5.49h3.815l-3.815-5.49zM54.030 28.539h6.353l-2.167-3.105-0.46 0.015h-3.726v3.089zM54.416 19.026l4.037 5.811c0.648-0.134 1.231-0.496 1.648-1.025 0.428-0.521 0.66-1.183 0.653-1.866 0.006-0.538-0.133-1.067-0.401-1.529-0.267-0.459-0.659-0.826-1.128-1.055-0.436-0.224-1.005-0.336-1.707-0.336h-3.102z"></path>
</symbol>
<symbol id="bg-logo-desc" viewBox="0 0 38 32">
<path d="M0 32c4.986 0 9.923-0.828 14.53-2.436s8.792-3.965 12.318-6.937c3.526-2.972 6.322-6.499 8.23-10.382s2.89-8.044 2.89-12.246h-37.969v32z"></path>
</symbol>
<symbol id="logo-tab" viewBox="0 0 110 32">
<path d="M34.347 24.197c-1.034-1.663-3.16-2.494-6.38-2.495h-1.016v10.256h1.016c2.489 0 4.326-0.568 5.511-1.703 0.998-0.969 1.498-2.203 1.498-3.7-0.002-0.891-0.212-1.677-0.628-2.358z"></path>
<path d="M16.909 24.32c1.035 1.663 3.161 2.494 6.379 2.494h1.016v-10.256h-1.016c-2.489 0-4.326 0.568-5.511 1.703-0.996 0.969-1.494 2.202-1.494 3.7 0 0.89 0.209 1.676 0.626 2.359z"></path>
<path d="M0 0.179h13.52v2.716h-8.667v1.358h7.2v2.577h-7.2v1.374h8.667v2.716h-13.52v-10.742z"></path>
<path d="M20.319 0.166h17.493l-8.747 10.973-8.747-10.973zM29.066 9.781l7.227-9.044h-14.427l7.2 9.044z"></path>
<path d="M44.799 0.178h13.52v2.716h-8.667v1.358h7.2v2.577h-7.2v1.374h8.667v2.716h-13.52v-10.742z"></path>
<path d="M66.639 10.905v-10.739h1.040l12.96 7.3v-7.3h0.987v10.742l-14.987-0.003z"></path>
<path d="M95.786 10.92v-8.025h-7.013v-2.716h14.987v2.716h-7.013v8.025h-0.96z"></path>
<path d="M7.972 18.698c1.173 0 2.107 0.103 2.8 0.309 0.797 0.225 1.466 0.577 1.929 1.014s0.7 0.942 0.685 1.455c0.005 0.494-0.236 0.979-0.693 1.397-0.465 0.428-1.118 0.777-1.893 1.011 0.962 0.196 1.805 0.55 2.427 1.019 0.645 0.463 0.994 1.041 0.987 1.636 0.007 0.52-0.238 1.030-0.707 1.474-0.458 0.441-1.106 0.805-1.88 1.057-0.411 0.128-0.851 0.221-1.307 0.278-0.48 0.062-1.12 0.093-1.92 0.093h-8.213v-10.742h7.787z"></path>
<path d="M39.239 28.661c-1.396-0.705-2.085-1.762-2.067-3.172h4.347c-0.018 0.586 0.284 1.034 0.907 1.343s1.493 0.463 2.613 0.463c0.924 0 1.653-0.087 2.187-0.262s0.8-0.442 0.8-0.803c0-0.298-0.271-0.515-0.813-0.648-0.518-0.129-1.059-0.225-1.613-0.285-0.533-0.057-0.862-0.091-0.987-0.103-1.208-0.129-2.395-0.319-3.547-0.566-0.967-0.208-1.829-0.553-2.507-1.003-0.676-0.453-1.013-1.049-1.013-1.79s0.338-1.371 1.013-1.891 1.578-0.908 2.707-1.165c1.178-0.262 2.431-0.393 3.693-0.386 1.618 0 3.018 0.175 4.2 0.525s2.111 0.88 2.787 1.59c0.313 0.3 0.522 0.633 0.613 0.98 0.070 0.304 0.106 0.611 0.107 0.918h-4.347c0-0.556-0.258-0.965-0.773-1.227s-1.316-0.393-2.4-0.393c-0.871 0-1.547 0.087-2.027 0.262s-0.72 0.412-0.72 0.71c0 0.329 0.32 0.571 0.96 0.725 0.786 0.18 1.598 0.319 2.427 0.417 1.6 0.185 2.849 0.363 3.747 0.532 0.905 0.173 1.712 0.485 2.333 0.903 0.658 0.432 0.987 1.039 0.987 1.821 0 0.741-0.356 1.379-1.067 1.914s-1.649 0.944-2.813 1.227c-1.196 0.287-2.479 0.431-3.773 0.424-2.578-0.002-4.564-0.355-5.96-1.060z"></path>
<path d="M63.786 29.44v-8.025h-7.013v-2.716h14.987v2.716h-7.013v8.025h-0.96z"></path>
<path d="M76.799 18.698h13.52v2.716h-8.667v1.358h7.2v2.577h-7.2v1.374h8.667v2.716h-13.52v-10.742z"></path>
<path d="M110.345 29.44h-14.267v-10.742h7.227c1.547 0 2.809 0.159 3.787 0.478 0.934 0.294 1.71 0.732 2.24 1.266 0.535 0.54 0.812 1.152 0.8 1.775 0.013 0.781-0.439 1.542-1.28 2.153-0.806 0.614-1.94 1.057-3.227 1.258l4.72 3.812zM97.065 19.64v5.541h6.853l-6.853-5.541zM97.065 28.869h11.413l-3.893-3.133-0.827 0.015h-6.693v3.118zM97.758 19.27l7.253 5.865c1.165-0.135 2.211-0.501 2.96-1.034 0.77-0.525 1.187-1.194 1.173-1.883 0.011-0.543-0.239-1.077-0.72-1.543-0.48-0.463-1.185-0.833-2.027-1.065-0.782-0.226-1.804-0.34-3.067-0.34h-5.573z"></path>
</symbol>
<symbol id="bg-logo-tab" viewBox="0 0 38 32">
<path d="M-0.106 32c4.995 0 9.942-0.828 14.557-2.436s8.809-3.965 12.341-6.937c3.532-2.971 6.334-6.499 8.246-10.382s2.896-8.044 2.896-12.246h-38.040v32z"></path>
</symbol>
<symbol id="bg-logo-mob" viewBox="0 0 38 32">
<path d="M-0.18 32c5.052 0 10.054-0.837 14.721-2.463s8.908-4.010 12.48-7.015 6.405-6.572 8.339-10.498c1.933-3.926 2.928-8.134 2.928-12.383h-38.467v32.36z"></path>
</symbol>
<symbol id="logo-mob" viewBox="0 0 74 32">
<path d="M22.887 24.117c-0.687-1.586-2.101-2.379-4.242-2.38h-0.675v9.784h0.675c1.655 0 2.876-0.542 3.664-1.625 0.664-0.925 0.996-2.101 0.996-3.529-0.001-0.85-0.141-1.599-0.418-2.25z"></path>
<path d="M11.294 24.235c0.688 1.586 2.102 2.379 4.241 2.379h0.675v-9.784h-0.675c-1.655 0-2.876 0.542-3.664 1.625-0.662 0.924-0.993 2.101-0.993 3.529 0 0.849 0.139 1.599 0.416 2.25z"></path>
<path d="M0.053 1.205h8.988v2.591h-5.762v1.296h4.787v2.459h-4.787v1.31h5.762v2.591h-8.988v-10.247z"></path>
<path d="M13.561 1.193h11.63l-5.815 10.468-5.815-10.468zM19.376 10.365l4.804-8.627h-9.591l4.787 8.627z"></path>
<path d="M29.835 1.205h8.988v2.591h-5.762v1.296h4.787v2.459h-4.787v1.31h5.762v2.591h-8.988v-10.247z"></path>
<path d="M44.355 11.437v-10.245h0.691l8.616 6.964v-6.964h0.656v10.247l-9.963-0.002z"></path>
<path d="M63.731 11.452v-7.656h-4.663v-2.591h9.963v2.591h-4.662v7.656h-0.638z"></path>
<path d="M5.353 18.872c0.78 0 1.401 0.098 1.861 0.294 0.53 0.215 0.974 0.55 1.282 0.968s0.466 0.899 0.455 1.388c0.003 0.472-0.157 0.934-0.461 1.332-0.309 0.409-0.744 0.741-1.259 0.964 0.64 0.187 1.2 0.525 1.613 0.972 0.429 0.442 0.661 0.993 0.656 1.561 0.005 0.496-0.158 0.983-0.47 1.406-0.305 0.42-0.735 0.767-1.25 1.009-0.273 0.122-0.566 0.211-0.869 0.265-0.319 0.059-0.745 0.088-1.276 0.088h-5.46v-10.247h5.177z"></path>
<path d="M26.139 28.375c-0.928-0.672-1.386-1.681-1.374-3.025h2.89c-0.012 0.559 0.189 0.986 0.603 1.281s0.993 0.442 1.737 0.442c0.615 0 1.099-0.083 1.454-0.25s0.532-0.422 0.532-0.766c0-0.285-0.18-0.491-0.541-0.618-0.344-0.123-0.704-0.215-1.073-0.272-0.355-0.054-0.573-0.087-0.656-0.098-0.803-0.123-1.592-0.304-2.358-0.54-0.643-0.199-1.216-0.527-1.666-0.957-0.449-0.432-0.674-1.001-0.674-1.708s0.224-1.308 0.674-1.803c0.449-0.496 1.049-0.866 1.799-1.112 0.783-0.25 1.616-0.375 2.455-0.368 1.075 0 2.006 0.167 2.792 0.501s1.403 0.839 1.853 1.516c0.209 0.286 0.347 0.604 0.408 0.935 0.047 0.29 0.070 0.583 0.071 0.876h-2.89c0-0.53-0.171-0.92-0.514-1.17s-0.875-0.375-1.596-0.375c-0.579 0-1.028 0.083-1.347 0.25s-0.479 0.393-0.479 0.677c0 0.314 0.213 0.545 0.638 0.692 0.523 0.172 1.062 0.305 1.613 0.398 1.064 0.177 1.894 0.346 2.491 0.508 0.602 0.165 1.138 0.463 1.551 0.861 0.437 0.412 0.656 0.991 0.656 1.737 0 0.707-0.236 1.315-0.709 1.826s-1.096 0.901-1.87 1.17c-0.795 0.273-1.648 0.411-2.509 0.405-1.714-0.002-3.034-0.339-3.962-1.011z"></path>
<path d="M42.457 29.119v-7.656h-4.662v-2.591h9.963v2.591h-4.662v7.656h-0.638z"></path>
<path d="M51.109 18.872h8.988v2.591h-5.762v1.296h4.787v2.459h-4.787v1.31h5.762v2.591h-8.988v-10.247z"></path>
<path d="M73.41 29.119h-9.484v-10.247h4.804c1.028 0 1.867 0.152 2.517 0.456 0.621 0.281 1.136 0.698 1.489 1.207 0.356 0.515 0.54 1.099 0.532 1.693 0.008 0.745-0.292 1.471-0.851 2.054-0.536 0.586-1.29 1.008-2.145 1.2l3.138 3.636zM64.581 19.77v5.285h4.556l-4.556-5.285zM64.581 28.574h7.588l-2.588-2.989-0.55 0.015h-4.45v2.974zM65.042 19.417l4.822 5.595c0.774-0.128 1.47-0.477 1.968-0.986 0.512-0.501 0.789-1.139 0.78-1.796 0.007-0.518-0.159-1.028-0.479-1.472-0.319-0.441-0.788-0.795-1.347-1.016-0.52-0.216-1.2-0.324-2.039-0.324h-3.705z"></path>
</symbol>
<symbol id="noise-body-mob" viewBox="0 0 5 32">
<path d="M0 0h4.547v32h-4.547v-32z"></path>
</symbol>
<symbol id="search-desc" viewBox="0 0 32 32">
<path d="M4.024 4.024c2.595-2.595 6.045-4.024 9.715-4.024s7.12 1.429 9.715 4.024c2.595 2.595 4.024 6.045 4.024 9.715 0 3.355-1.195 6.526-3.383 9.029l7.63 7.63c0.366 0.366 0.366 0.961 0 1.327-0.183 0.183-0.423 0.275-0.664 0.275s-0.48-0.092-0.663-0.275l-7.63-7.63c-2.502 2.188-5.673 3.383-9.029 3.383-3.67 0-7.12-1.429-9.715-4.024s-4.024-6.045-4.024-9.715 1.429-7.12 4.024-9.715zM5.351 22.127c4.625 4.625 12.15 4.625 16.775 0s4.625-12.15 0-16.775c-2.313-2.313-5.35-3.469-8.388-3.469s-6.076 1.157-8.388 3.469c-4.625 4.625-4.625 12.15 0 16.775z"></path>
</symbol>
<symbol id="search-mob-tab" viewBox="0 0 35 32">
<path fill="#939393" style="fill: var(--color4, #939393)" d="M4.39 5.208c2.831-2.351 6.595-3.646 10.598-3.646s7.767 1.295 10.598 3.646c2.831 2.351 4.39 5.477 4.39 8.801 0 3.040-1.304 5.913-3.691 8.18l8.324 6.913c0.4 0.332 0.4 0.87 0 1.203-0.2 0.166-0.462 0.249-0.724 0.249s-0.524-0.083-0.724-0.249l-8.324-6.913c-2.73 1.982-6.189 3.065-9.849 3.065-4.004 0-7.767-1.295-10.598-3.646s-4.39-5.477-4.39-8.802 1.559-6.451 4.39-8.801zM5.838 21.609c5.046 4.19 13.255 4.19 18.3 0s5.045-11.008 0-15.198c-2.523-2.095-5.836-3.143-9.15-3.143s-6.628 1.048-9.15 3.143c-5.045 4.19-5.045 11.008 0 15.198z"></path>
</symbol>
<symbol id="polygon" viewBox="0 0 52 32">
<path d="M26 32l-25.981-30h51.962l-25.981 30z"></path>
</symbol>
<symbol id="location-desc" viewBox="0 0 26 32">
<path d="M12.075 0c-6.658 0-12.075 4.99-12.075 11.123 0 7.709 12.087 20.877 12.087 20.877s12.063-13.547 12.063-20.877c0-6.133-5.417-11.123-12.075-11.123zM15.718 14.38c-1.005 0.925-2.324 1.388-3.643 1.388s-2.639-0.463-3.643-1.388c-2.009-1.85-2.009-4.861 0-6.712 0.973-0.896 2.267-1.39 3.643-1.39s2.67 0.494 3.643 1.39c2.009 1.851 2.009 4.862 0 6.712z"></path>
</symbol>
<symbol id="location-mob-tab" viewBox="0 0 21 32">
<path d="M10.667 0c-5.882 0-10.667 4.99-10.667 11.123 0 7.709 10.677 20.877 10.677 20.877s10.656-13.547 10.656-20.877c0-6.133-4.785-11.123-10.667-11.123zM13.885 14.38c-0.887 0.925-2.053 1.388-3.218 1.388s-2.331-0.463-3.218-1.388c-1.775-1.85-1.775-4.861 0-6.712 0.859-0.896 2.002-1.39 3.218-1.39s2.359 0.494 3.218 1.39c1.775 1.851 1.775 4.861 0 6.712z"></path>
</symbol>
<symbol id="ticket-desc" viewBox="0 0 44 32">
<path d="M4.91 1.27h-4.91v29.46h4.91v-29.46z"></path>
<path d="M17.26 1.27h-4.91v29.46h4.91v-29.46z"></path>
<path d="M24.699 1.27h-4.91v29.46h4.91v-29.46z"></path>
<path d="M44.19 1.27h-7.291v29.46h7.291v-29.46z"></path>
<path d="M9.82 1.27h-2.381v29.46h2.381v-29.46z"></path>
<path d="M29.46 1.27h-2.381v29.46h2.381v-29.46z"></path>
<path d="M34.37 1.27h-2.381v29.46h2.381v-29.46z"></path>
</symbol>
<symbol id="close-desc" viewBox="0 0 32 32">
<path fill="#4c00fe" style="fill: var(--color5, #4c00fe)" d="M1.646 32c-0.422 0-0.843-0.16-1.163-0.483-0.643-0.643-0.643-1.685 0-2.328l28.707-28.707c0.643-0.643 1.685-0.643 2.328 0s0.643 1.685 0 2.329l-28.707 28.706c-0.323 0.321-0.744 0.483-1.165 0.483z"></path>
<path fill="#4c00fe" style="fill: var(--color5, #4c00fe)" d="M30.355 32c-0.422 0-0.843-0.16-1.163-0.483l-28.709-28.706c-0.643-0.643-0.643-1.686 0-2.329s1.685-0.643 2.329 0l28.707 28.707c0.643 0.643 0.643 1.685 0 2.328-0.323 0.321-0.744 0.483-1.163 0.483z"></path>
</symbol>
<symbol id="ticket-mob-tab" viewBox="0 0 45 32">
<path d="M5.020 1.569h-5.020v30.118h5.020v-30.118z"></path>
<path d="M17.645 1.569h-5.020v30.118h5.020v-30.118z"></path>
<path d="M25.25 1.569h-5.019v30.118h5.019v-30.118z"></path>
<path d="M45.177 1.569h-7.453v30.118h7.453v-30.118z"></path>
<path d="M10.039 1.569h-2.434v30.118h2.434v-30.118z"></path>
<path d="M30.118 1.569h-2.434v30.118h2.434v-30.118z"></path>
<path d="M35.137 1.569h-2.434v30.118h2.434v-30.118z"></path>
</symbol>
<symbol id="close-mob-tab" viewBox="0 0 32 32">
<path fill="#4c00fe" style="fill: var(--color5, #4c00fe)" d="M1.646 32c-0.422 0-0.843-0.16-1.163-0.483-0.643-0.643-0.643-1.685 0-2.328l28.707-28.707c0.643-0.643 1.685-0.643 2.328 0s0.643 1.685 0 2.329l-28.707 28.706c-0.323 0.321-0.744 0.483-1.165 0.483z"></path>
<path fill="#4c00fe" style="fill: var(--color5, #4c00fe)" d="M30.355 32c-0.421 0-0.843-0.16-1.163-0.483l-28.709-28.706c-0.643-0.643-0.643-1.686 0-2.329s1.685-0.643 2.329 0l28.707 28.707c0.643 0.643 0.643 1.685 0 2.328-0.323 0.321-0.744 0.483-1.163 0.483z"></path>
</symbol>
<symbol id="sun" viewBox="0 0 32 32">
<path d="M6.733 8.79c0.573 0.571 1.495 0.58 2.066 0.009 0.567-0.567 0.571-1.485-0.010-2.066l-2.036-2.036c-0.574-0.574-1.493-0.583-2.066-0.010-0.569 0.567-0.573 1.483 0.010 2.066l2.036 2.037z"></path>
<path d="M30.533 14.546h-2.879c-0.813 0-1.47 0.646-1.47 1.454 0 0.804 0.644 1.454 1.47 1.454h2.879c0.813 0 1.467-0.644 1.467-1.454 0-0.803-0.646-1.454-1.467-1.454z"></path>
<path d="M5.817 16c0-0.803-0.646-1.454-1.469-1.454h-2.881c-0.811 0-1.467 0.646-1.467 1.454 0 0.804 0.644 1.454 1.467 1.454h2.881c0.811 0 1.469-0.644 1.469-1.454z"></path>
<path d="M16 7.271c-4.818 0-8.725 3.907-8.725 8.725s3.907 8.725 8.725 8.725c4.816 0 8.725-3.907 8.725-8.725s-3.909-8.725-8.725-8.725zM16 21.812c-3.212 0-5.817-2.604-5.817-5.817s2.604-5.817 5.817-5.817 5.817 2.604 5.817 5.817-2.604 5.817-5.817 5.817z"></path>
<path d="M6.733 23.211l-2.036 2.036c-0.574 0.574-0.583 1.493-0.010 2.066 0.569 0.567 1.485 0.571 2.066-0.010l2.036-2.036c0.574-0.574 0.583-1.493 0.010-2.066-0.569-0.57-1.485-0.571-2.066 0.010z"></path>
<path d="M25.267 8.79l2.036-2.037c0.574-0.574 0.58-1.493 0.010-2.066-0.57-0.567-1.485-0.571-2.066 0.010l-2.036 2.036c-0.574 0.574-0.582 1.495-0.010 2.066 0.57 0.567 1.485 0.571 2.066-0.009z"></path>
<path d="M16 26.183c-0.804 0-1.454 0.646-1.454 1.47v2.879c0 0.813 0.646 1.467 1.454 1.467 0.804 0 1.454-0.643 1.454-1.467v-2.879c0-0.813-0.644-1.47-1.454-1.47z"></path>
<path d="M25.267 23.211c-0.574-0.574-1.493-0.582-2.066-0.010-0.567 0.57-0.573 1.485 0.010 2.066l2.036 2.036c0.574 0.574 1.493 0.58 2.066 0.010 0.569-0.567 0.573-1.485-0.010-2.066l-2.036-2.036z"></path>
<path d="M16 5.817c0.804 0 1.454-0.644 1.454-1.469v-2.879c0-0.811-0.644-1.469-1.454-1.469-0.804 0-1.454 0.646-1.454 1.469v2.879c0 0.811 0.646 1.469 1.454 1.469z"></path>
</symbol>
<symbol id="moon" viewBox="0 0 32 32">
<path d="M16.256 16c0-6.901 4.479-12.764 10.744-15.009-1.757-0.63-3.647-0.991-5.628-0.991-9.042 0-16.372 7.164-16.372 16 0 8.837 7.33 16 16.372 16 1.981 0 3.871-0.361 5.628-0.991-6.265-2.245-10.744-8.108-10.744-15.009z"></path>
</symbol>
</defs>

<svg id="icon-github" viewBox="0 0 32 32" version="1.1" width="64" data-view-component="true" class="octicon octicon-mark-github v-align-middle">
    <path fill-rule="evenodd" d="M8 0C3.58 0 0 3.58 0 8c0 3.54 2.29 6.53 5.47 7.59.4.07.55-.17.55-.38 0-.19-.01-.82-.01-1.49-2.01.37-2.53-.49-2.69-.94-.09-.23-.48-.94-.82-1.13-.28-.15-.68-.52-.01-.53.63-.01 1.08.58 1.23.82.72 1.21 1.87.87 2.33.66.07-.52.28-.87.51-1.07-1.78-.2-3.64-.89-3.64-3.95 0-.87.31-1.59.82-2.15-.08-.2-.36-1.02.08-2.12 0 0 .67-.21 2.2.82.64-.18 1.32-.27 2-.27.68 0 1.36.09 2 .27 1.53-1.04 2.2-.82 2.2-.82.44 1.1.16 1.92.08 2.12.51.56.82 1.27.82 2.15 0 3.07-1.87 3.75-3.65 3.95.29.25.54.73.54 1.48 0 1.07-.01 1.93-.01 2.2 0 .21.15.46.55.38A8.013 8.013 0 0016 8c0-4.42-3.58-8-8-8z"></path>
</svg>
<symbol id="icon-github-3" viewBox="0 0 32 32">
<path d="M25.333 0h-18.667c-3.681 0-6.667 2.985-6.667 6.667v18.667c0 3.681 2.985 6.667 6.667 6.667h18.667c3.683 0 6.667-2.985 6.667-6.667v-18.667c0-3.681-2.984-6.667-6.667-6.667zM19.379 26.12c-0.54 0.104-0.712-0.228-0.712-0.512v-2.927c0-0.996-0.349-1.644-0.733-1.975 2.376-0.264 4.872-1.167 4.872-5.263 0-1.165-0.416-2.117-1.097-2.863 0.109-0.269 0.475-1.355-0.105-2.823 0 0-0.895-0.287-2.931 1.093-0.853-0.24-1.765-0.356-2.672-0.361-0.907 0.004-1.819 0.121-2.671 0.359-2.037-1.38-2.933-1.093-2.933-1.093-0.579 1.469-0.213 2.553-0.103 2.824-0.683 0.747-1.099 1.697-1.099 2.863 0 4.085 2.489 5.001 4.86 5.272-0.305 0.267-0.581 0.736-0.677 1.427-0.609 0.272-2.152 0.743-3.104-0.888 0 0-0.564-1.024-1.636-1.1 0 0-1.040-0.013-0.073 0.649 0 0 0.7 0.328 1.185 1.56 0 0 0.617 1.904 3.584 1.259v1.985c0 0.281-0.172 0.612-0.704 0.513-4.24-1.409-7.296-5.408-7.296-10.12 0-5.892 4.776-10.667 10.667-10.667s10.667 4.775 10.667 10.667c0 4.711-3.052 8.708-7.288 10.12z"></path>
</symbol>

</svg>
